<?xml version="1.0" standalone="no"?>
<!DOCTYPE svg PUBLIC "-//W3C//DTD SVG 20010904//EN"
 "http://www.w3.org/TR/2001/REC-SVG-20010904/DTD/svg10.dtd">
<svg version="1.0" xmlns="http://www.w3.org/2000/svg"
 width="2550.000000pt" height="2550.000000pt" viewBox="0 0 2550.000000 2550.000000"
 preserveAspectRatio="xMidYMid meet">

<g transform="translate(0.000000,2550.000000) scale(0.100000,-0.100000)"
fill="#000000" stroke="none">
<path d="M11103 19853 l-163 -3 0 -75 0 -75 -75 0 -75 0 0 -240 0 -240 -81 0
-81 0 4 -75 3 -75 -82 0 -83 0 0 -73 0 -74 -112 -6 c-62 -4 -166 -7 -230 -7
l-118 0 -2 -627 -3 -628 -77 -3 -78 -3 0 -74 0 -75 -80 0 -80 0 0 -75 0 -75
-390 0 -390 0 0 75 0 75 -153 0 -154 0 -6 122 c-4 66 -7 208 -7 315 l0 193
-75 0 -75 0 0 73 0 74 -232 6 c-298 9 -808 9 -1104 0 l-232 -6 -7 -309 -7
-308 -74 0 -74 0 0 -80 0 -80 -80 0 -80 0 0 -73 0 -74 -122 -6 c-66 -4 -172
-7 -235 -7 l-113 0 0 -81 0 -81 -75 4 -75 3 0 -547 0 -548 75 0 75 0 0 -80 0
-80 235 0 235 0 0 -75 0 -75 79 0 79 0 7 -157 7 -158 64 3 64 4 0 63 0 64 -62
4 -63 3 68 2 67 2 0 -152 0 -153 -69 3 -69 4 -7 -161 -7 -161 -154 0 -154 0 0
-75 0 -74 -157 -3 -158 -3 -3 -77 -3 -78 -69 0 -70 0 0 70 0 69 68 4 67 3 -72
2 -73 2 0 -235 0 -235 -80 0 -80 0 0 -74 0 -74 -155 -7 -155 -7 0 -74 0 -74
-161 0 -161 0 3 -702 3 -703 235 -5 236 -5 3 -71 3 -72 154 -7 155 -7 0 -1094
0 -1094 70 0 70 0 0 70 0 69 -67 4 -68 3 72 2 72 2 3 -77 3 -78 78 -3 77 -3 0
-74 0 -75 160 0 160 0 0 -75 0 -75 75 0 74 0 3 -82 3 -83 71 -3 71 -3 6 -112
c4 -62 7 -167 7 -235 l0 -123 703 3 702 3 3 -77 3 -78 74 0 75 0 2 -82 c2 -46
3 -152 3 -235 l0 -153 -77 0 -78 0 0 -80 0 -80 -80 0 -80 0 0 -75 0 -75 -232
-2 -233 -3 -3 -312 -2 -313 235 0 235 0 0 -80 0 -80 80 0 80 0 0 -75 0 -74 78
-3 77 -3 3 -312 2 -313 1645 0 1645 0 0 310 0 309 78 3 77 3 3 78 3 77 79 0
80 0 0 75 0 75 310 0 309 0 3 -73 3 -72 703 -3 702 -2 0 80 0 80 80 0 80 0 0
310 0 309 78 3 77 3 3 78 3 77 389 0 390 0 0 -75 0 -75 235 0 235 0 0 70 0 69
-77 4 c-43 1 -7 4 80 5 l157 2 0 315 0 315 80 0 80 0 0 73 0 74 122 6 c66 4
230 6 362 6 262 -2 659 -14 534 -17 l-78 -2 0 -70 0 -70 468 0 467 0 -3 70 -4
69 -76 4 c-42 1 29 4 159 5 l236 2 8 160 7 160 64 0 64 0 2 -77 1 -78 8 95 c4
52 5 157 2 233 l-6 137 -73 0 -74 0 0 80 0 80 -155 0 -155 0 0 75 0 75 -942
-2 c-519 -1 -908 -4 -865 -5 l77 -4 0 -70 0 -70 -72 1 c-40 1 -146 1 -235 1
l-163 -1 0 -315 0 -315 -80 0 -80 0 0 -75 0 -75 -702 -2 -703 -3 -3 -312 -2
-312 -78 -3 -77 -3 -3 -77 -3 -78 -1094 0 -1095 0 0 -80 0 -80 -75 0 -75 0 0
-188 c0 -104 -3 -244 -7 -310 l-6 -122 -981 0 c-540 0 -1032 -3 -1093 -7
l-113 -6 0 -74 0 -73 -237 2 -238 3 0 71 0 72 -155 7 -155 7 0 312 0 311 78 3
77 3 0 73 0 74 155 7 155 7 0 74 0 74 160 0 160 0 0 235 0 235 80 0 80 0 0 75
0 75 83 2 c45 1 361 2 702 3 l620 0 3 393 2 392 -160 0 -160 0 0 75 0 75
-1255 0 -1255 0 0 -75 0 -75 -470 0 -470 0 0 80 0 80 -80 0 -80 0 0 583 c0
321 3 639 7 705 l6 122 1564 0 1563 0 0 395 0 395 -75 0 -75 0 0 75 0 75
-1722 0 c-948 0 -1796 0 -1885 0 l-163 0 0 80 0 80 -75 0 -75 0 0 545 0 545
75 0 75 0 0 80 0 80 80 0 80 0 0 78 0 77 238 4 c131 2 307 0 390 -4 l152 -7 0
-75 0 -74 1410 2 1410 1 0 79 0 79 80 0 80 0 0 390 0 390 -705 0 -705 0 0 80
0 80 -80 0 -80 0 0 235 0 235 -75 0 -75 0 0 80 0 80 -630 0 -630 0 0 75 0 74
-77 3 -78 3 0 697 c0 383 3 699 6 702 3 4 111 10 240 15 129 4 197 9 152 9
l-83 2 0 70 0 70 313 0 312 0 -3 -74 -3 -74 160 -7 161 -7 0 -74 0 -73 78 -3
77 -3 3 -312 2 -313 705 0 705 0 0 -80 0 -80 78 0 77 0 4 -308 c2 -169 5 -309
8 -312 8 -8 2162 -12 2341 -5 l162 7 0 277 c0 152 -3 327 -7 388 l-6 113 -231
2 -231 3 -1 75 -1 75 -76 3 -76 3 -3 77 -3 77 -77 3 -78 3 0 228 0 228 -122 6
c-66 4 -172 7 -235 7 l-113 0 0 75 0 75 -80 0 -80 0 0 80 0 80 -75 0 -75 0 0
550 0 550 75 0 75 0 0 75 0 75 80 0 80 0 0 80 0 80 470 0 470 0 0 -80 0 -80
80 0 80 0 0 -80 0 -80 75 0 75 0 2 -232 3 -233 75 -2 c41 -1 146 -2 233 -2
l157 -1 0 -75 0 -75 80 0 80 0 0 -80 0 -80 80 0 80 0 0 -309 0 -308 141 -7
c77 -4 319 -4 537 0 218 4 472 3 565 -1 l167 -7 0 -74 0 -74 80 0 80 0 0 -234
0 -234 155 -7 155 -7 0 -74 0 -74 160 0 160 0 0 -80 0 -80 75 0 75 0 0 -235 0
-235 80 0 80 0 0 -75 0 -75 233 -2 232 -3 3 -77 3 -78 79 0 80 0 0 -237 0
-238 75 3 75 4 0 -81 0 -81 238 -2 c130 -1 202 -4 160 -5 l-78 -4 0 -69 0 -70
468 2 c257 1 432 4 390 5 l-76 4 -4 69 -3 70 238 0 237 0 1 83 c0 45 0 115 -1
155 l-1 72 70 0 71 0 1 -77 c2 -71 3 -68 10 42 5 67 5 174 0 240 -7 110 -8
113 -10 43 l-1 -78 -63 0 -64 0 -6 107 c-4 58 -7 128 -7 155 l0 48 -157 2
c-87 1 -123 4 -80 5 l77 4 0 69 0 70 -155 0 -155 0 0 -75 0 -75 -395 0 -395 0
0 75 0 75 -75 0 -75 0 0 80 0 80 -80 0 -80 0 0 235 0 235 -235 0 -235 0 0 75
0 74 -77 3 -78 3 -3 78 -3 77 -74 0 -75 0 0 235 0 235 -113 0 c-63 0 -169 3
-235 7 l-122 6 0 74 0 73 -80 0 -80 0 0 75 0 74 -77 3 -78 3 -3 238 -2 237
-75 0 -75 0 0 75 0 75 -82 1 c-46 0 -360 1 -700 2 -339 1 -619 5 -623 9 -4 4
-10 144 -13 311 l-5 305 -153 7 -154 7 0 68 0 67 -112 6 c-62 4 -168 7 -235 7
l-122 0 -1 232 c0 127 -2 234 -5 236 -3 3 -5 -29 -5 -71 l0 -75 -70 -4 -70 -3
-1 160 c0 88 0 192 1 231 l1 71 -242 6 c-228 7 -817 6 -1176 0z m1894 -900
c-2 -21 -4 -6 -4 32 0 39 2 55 4 38 2 -18 2 -50 0 -70z m-6920 -1880 c-2 -21
-4 -6 -4 32 0 39 2 55 4 38 2 -18 2 -50 0 -70z m9811 -346 l67 -3 -72 -2 -73
-2 2 73 2 72 3 -67 4 -67 67 -4z m2412 -6837 l0 -70 -67 0 -68 0 3 70 4 70 64
0 64 0 0 -70z m-9383 -1277 c-2 -21 -4 -6 -4 32 0 39 2 55 4 38 2 -18 2 -50 0
-70z m2813 -293 l0 -70 -70 0 -70 0 0 70 0 70 70 0 70 0 0 -70z m-3142 -1402
l-2 -73 -3 67 -4 67 -67 4 -67 3 73 2 72 2 -2 -72z"/>
<path d="M10323 18995 c0 -38 2 -53 4 -32 2 20 2 52 0 70 -2 17 -4 1 -4 -38z"/>
<path d="M12363 18670 c0 -41 2 -58 4 -37 2 20 2 54 0 75 -2 20 -4 3 -4 -38z"/>
<path d="M12595 16240 l-70 -6 67 -2 67 -2 4 -72 3 -73 2 83 c1 45 1 81 0 80
-2 -1 -34 -4 -73 -8z"/>
<path d="M7970 15860 l0 -70 75 0 75 0 0 65 0 64 83 4 c46 1 14 4 -75 5 l-158
2 0 -70z"/>
<path d="M8583 15700 c0 -41 2 -58 4 -37 2 20 2 54 0 75 -2 20 -4 3 -4 -38z"/>
<path d="M10480 9260 l0 -70 75 0 75 0 0 70 0 70 -75 0 -75 0 0 -70z"/>
<path d="M14443 8413 c20 -2 54 -2 75 0 20 2 3 4 -38 4 -41 0 -58 -2 -37 -4z"/>
</g>
</svg>
