<?xml version="1.0" encoding="UTF-8" standalone="no"?>
<svg
   xmlns:dc="http://purl.org/dc/elements/1.1/"
   xmlns:cc="http://creativecommons.org/ns#"
   xmlns:rdf="http://www.w3.org/1999/02/22-rdf-syntax-ns#"
   xmlns:svg="http://www.w3.org/2000/svg"
   xmlns="http://www.w3.org/2000/svg"
   xmlns:sodipodi="http://sodipodi.sourceforge.net/DTD/sodipodi-0.dtd"
   xmlns:inkscape="http://www.inkscape.org/namespaces/inkscape"
   version="1.0"
   width="2550.000000pt"
   height="2550.000000pt"
   viewBox="0 0 2550.000000 2550.000000"
   preserveAspectRatio="xMidYMid meet"
   id="svg20"
   sodipodi:docname="paper.svg"
   inkscape:version="0.92.5 (2060ec1f9f, 2020-04-08)">
  <metadata
     id="metadata26">
    <rdf:RDF>
      <cc:Work
         rdf:about="">
        <dc:format>image/svg+xml</dc:format>
        <dc:type
           rdf:resource="http://purl.org/dc/dcmitype/StillImage" />
      </cc:Work>
    </rdf:RDF>
  </metadata>
  <defs
     id="defs24" />
  <sodipodi:namedview
     pagecolor="#ffffff"
     bordercolor="#666666"
     borderopacity="1"
     objecttolerance="10"
     gridtolerance="10"
     guidetolerance="10"
     inkscape:pageopacity="0"
     inkscape:pageshadow="2"
     inkscape:window-width="791"
     inkscape:window-height="480"
     id="namedview22"
     showgrid="false"
     inkscape:zoom="0.069411765"
     inkscape:cx="1700"
     inkscape:cy="1700"
     inkscape:window-x="0"
     inkscape:window-y="0"
     inkscape:window-maximized="0"
     inkscape:current-layer="svg20" />
  <g
     transform="matrix(0.18547417,0,0,-0.18547417,-1300.9501,3744.4049)"
     id="g18"
     style="fill:#000000;stroke:none">
    <path
       d="m 13142,19853 -163,-4 1,-72 c 1,-39 1,-144 1,-232 l -1,-160 -70,3 -70,4 v 75 c 0,42 -2,74 -5,71 -3,-2 -5,-109 -5,-236 l -1,-232 h -122 c -67,0 -173,-3 -234,-7 l -113,-6 v -67 -68 l -154,-7 -153,-7 -5,-305 c -3,-167 -9,-307 -13,-311 -4,-4 -284,-8 -623,-9 -340,-1 -654,-2 -699,-2 l -83,-1 v -75 -75 h -75 -75 l -2,-237 -3,-238 -77,-3 -78,-3 v -74 -75 h -80 -80 v -73 -74 l -122,-6 c -66,-4 -172,-7 -235,-7 h -113 v -235 -235 h -75 -74 l -3,-77 -3,-78 -77,-3 -78,-3 v -74 -75 h -235 -235 v -235 -235 h -80 -80 v -80 -80 h -75 -75 v -75 -75 h -395 -395 v 75 75 h -155 -155 v -70 -69 l 78,-4 c 42,-1 6,-4 -80,-5 l -158,-2 v -48 c 0,-27 -3,-97 -7,-155 l -6,-107 h -64 -63 l -1,78 c -2,70 -3,67 -10,-43 -5,-66 -5,-173 0,-240 7,-110 8,-113 10,-42 l 1,77 h 71 70 l -1,-72 c -1,-40 -1,-110 -1,-155 l 1,-83 h 238 237 l -3,-70 -4,-69 -76,-4 c -42,-1 133,-4 391,-5 l 467,-2 v 70 69 l -77,4 c -43,1 29,4 160,5 l 237,2 v 81 81 l 75,-4 75,-3 v 238 237 h 80 79 l 3,78 3,77 233,3 232,2 v 75 75 h 80 80 v 235 235 h 75 75 v 80 80 h 160 160 v 74 74 l 155,7 155,7 v 234 234 h 80 80 v 74 74 l 168,7 c 92,4 346,5 564,1 218,-4 460,-4 537,0 l 141,7 v 308 309 h 80 80 v 80 80 h 80 80 v 75 75 l 158,1 c 86,0 191,1 232,2 l 75,2 3,233 2,232 h 75 75 v 80 80 h 80 80 v 80 80 h 470 470 v -80 -80 h 80 80 v -75 -75 h 75 75 v -550 -550 h -75 -75 v -80 -80 h -80 -80 v -75 -75 h -113 c -63,0 -169,-3 -235,-7 l -122,-6 v -228 -228 l -77,-3 -78,-3 -3,-77 -3,-77 -76,-3 -76,-3 -1,-75 -1,-75 -231,-3 -231,-2 -6,-113 c -4,-61 -7,-236 -7,-388 v -277 l 163,-7 c 178,-7 2332,-3 2340,5 3,3 6,143 8,312 l 4,308 h 78 77 v 80 80 h 705 705 l 2,313 3,312 78,3 77,3 v 73 74 l 161,7 160,7 -3,74 -3,74 h 313 312 v -70 -70 l -82,-2 c -46,0 22,-5 151,-9 129,-5 237,-11 240,-15 3,-3 6,-319 6,-702 v -697 l -77,-3 -78,-3 v -74 -75 h -630 -630 v -80 -80 h -75 -75 v -235 -235 h -80 -80 v -80 -80 h -705 -705 v -390 -390 h 80 80 v -79 -79 l 1410,-1 1410,-2 v 74 75 l 152,7 c 83,4 259,6 390,4 l 238,-4 v -77 -78 h 80 80 v -80 -80 h 75 75 v -545 -545 h -75 -75 v -80 -80 h -162 c -90,0 -938,0 -1885,0 h -1723 v -75 -75 h -75 -75 v -395 -395 h 1563 1564 l 6,-122 c 4,-66 7,-384 7,-705 v -583 h -80 -80 v -80 -80 h -470 -470 v 75 75 h -1255 -1255 v -75 -75 h -160 -160 l 2,-392 3,-393 h 620 c 341,-1 657,-2 703,-3 l 82,-2 v -75 -75 h 80 80 v -235 -235 h 160 160 v -74 -74 l 155,-7 155,-7 v -74 -73 l 78,-3 77,-3 v -311 -312 l -155,-7 -155,-7 v -72 -71 l -237,-3 -238,-2 v 73 74 l -112,6 c -62,4 -554,7 -1094,7 h -981 l -6,122 c -4,66 -7,206 -7,310 v 188 h -75 -75 v 80 80 h -1095 -1094 l -3,78 -3,77 -77,3 -78,3 -2,312 -3,312 -702,3 -703,2 v 75 75 h -80 -80 v 315 315 l -162,1 c -90,0 -196,0 -235,-1 l -73,-1 v 70 70 l 78,4 c 42,1 -347,4 -865,5 l -943,2 v -75 -75 h -155 -155 v -80 -80 h -74 -73 l -6,-137 c -3,-76 -2,-181 2,-233 l 8,-95 1,78 2,77 h 64 64 l 7,-160 8,-160 236,-2 c 130,-1 201,-4 159,-5 l -76,-4 -4,-69 -3,-70 h 468 467 v 70 70 l -77,2 c -126,3 271,15 533,17 132,0 296,-2 362,-6 l 122,-6 v -74 -73 h 80 80 v -315 -315 l 158,-2 c 86,-1 122,-4 80,-5 l -78,-4 v -69 -70 h 235 235 v 75 75 h 390 389 l 3,-77 3,-78 78,-3 77,-3 v -309 -310 h 80 80 v -80 -80 l 703,2 702,3 3,73 3,72 h 309 310 v -75 -75 h 80 79 l 3,-78 3,-77 78,-3 77,-3 v -309 -310 h 1645 1645 l 2,313 3,312 78,3 77,3 v 74 75 h 80 80 v 80 80 h 235 235 l -2,313 -3,312 -232,3 -233,2 v 75 75 h -80 -80 v 80 80 h -77 -78 v 153 c 0,83 1,189 3,235 l 2,82 h 75 74 l 3,78 3,77 703,-3 702,-3 v 123 c 0,68 3,173 7,235 l 6,112 71,3 71,3 3,83 3,82 h 74 75 v 75 75 h 160 160 v 75 74 l 78,3 77,3 3,78 3,77 72,-2 72,-2 -67,-3 -68,-4 v -69 -70 h 70 70 v 1094 1094 l 155,7 154,7 3,72 3,71 236,5 235,5 3,703 3,702 h -161 -161 v 74 74 l -155,7 -155,7 v 74 74 h -80 -80 v 235 235 l -72,-2 -73,-2 68,-3 67,-4 v -69 -70 h -70 -69 l -3,78 -3,77 -157,3 -158,3 v 74 75 h -154 -154 l -7,161 -7,161 -69,-4 -69,-3 v 153 152 l 68,-2 67,-2 -62,-3 -63,-4 v -64 -63 l 64,-4 64,-3 7,158 7,157 h 79 79 v 75 75 h 235 235 v 80 80 h 75 75 v 548 547 l -75,-3 -75,-4 v 81 81 h -113 c -63,0 -169,3 -235,7 l -122,6 v 74 73 h -80 -80 v 80 80 h -74 -74 l -7,308 -7,309 -232,6 c -296,9 -806,9 -1103,0 l -233,-6 v -74 -73 h -75 -75 v -193 c 0,-107 -3,-249 -7,-315 l -6,-122 h -154 -153 v -75 -75 h -390 -390 v 75 75 h -80 -80 v 75 74 l -77,3 -78,3 -3,628 -2,627 h -118 c -64,0 -168,3 -229,7 l -113,6 v 74 73 h -82 -83 l 3,75 4,75 h -81 -81 v 240 240 h -75 -75 v 73 74 l -242,6 c -228,7 -815,6 -1176,0 z m -635,-900 c -2,-21 -4,-6 -4,32 0,39 2,55 4,38 2,-18 2,-50 0,-70 z m 6920,-1880 c -2,-21 -4,-6 -4,32 0,39 2,55 4,38 2,-18 2,-50 0,-70 z m -9737,-283 v -70 l -72,2 -73,2 68,3 67,4 v 64 c 0,36 2,65 5,65 3,0 5,-31 5,-70 z m -2358,-6900 3,-70 h -67 -68 v 70 70 h 64 64 z m 9255,-1277 c -2,-21 -4,-6 -4,32 0,39 2,55 4,38 2,-18 2,-50 0,-70 z m -2677,-293 v -70 h -70 -70 v 70 70 h 70 70 z m 3078,-1337 -67,-4 -4,-67 -3,-67 -2,73 -2,72 73,-2 72,-2 z"
       id="path2"
       inkscape:connector-curvature="0" />
    <path
       d="m 15173,18995 c 0,-38 2,-53 4,-32 2,20 2,52 0,70 -2,17 -4,1 -4,-38 z"
       id="path4"
       inkscape:connector-curvature="0" />
    <path
       d="m 13133,18670 c 0,-41 2,-58 4,-37 2,20 2,54 0,75 -2,20 -4,3 -4,-38 z"
       id="path6"
       inkscape:connector-curvature="0" />
    <path
       d="m 12832,16165 2,-80 3,72 4,72 67,3 67,3 -73,5 -72,5 z"
       id="path8"
       inkscape:connector-curvature="0" />
    <path
       d="m 17298,15923 82,-4 v -64 -65 h 75 75 v 70 70 l -157,-2 c -90,-1 -122,-4 -75,-5 z"
       id="path10"
       inkscape:connector-curvature="0" />
    <path
       d="m 16913,15700 c 0,-41 2,-58 4,-37 2,20 2,54 0,75 -2,20 -4,3 -4,-38 z"
       id="path12"
       inkscape:connector-curvature="0" />
    <path
       d="m 14870,9260 v -70 h 75 75 v 70 70 h -75 -75 z"
       id="path14"
       inkscape:connector-curvature="0" />
    <path
       d="m 10983,8413 c 20,-2 54,-2 75,0 20,2 3,4 -38,4 -41,0 -58,-2 -37,-4 z"
       id="path16"
       inkscape:connector-curvature="0" />
  </g>
</svg>
