<?xml version="1.0" standalone="no"?>
<!DOCTYPE svg PUBLIC "-//W3C//DTD SVG 20010904//EN"
 "http://www.w3.org/TR/2001/REC-SVG-20010904/DTD/svg10.dtd">
<svg version="1.0" xmlns="http://www.w3.org/2000/svg"
 width="2550.000000pt" height="2550.000000pt" viewBox="0 0 2550.000000 2550.000000"
 preserveAspectRatio="xMidYMid meet">

<g transform="translate(0.000000,2550.000000) scale(0.100000,-0.100000)"
fill="#000000" stroke="none">
<path d="M13142 19853 l-163 -4 1 -72 c1 -39 1 -144 1 -232 l-1 -160 -70 3
-70 4 0 75 c0 42 -2 74 -5 71 -3 -2 -5 -109 -5 -236 l-1 -232 -122 0 c-67 0
-173 -3 -234 -7 l-113 -6 0 -67 0 -68 -154 -7 -153 -7 -5 -305 c-3 -167 -9
-307 -13 -311 -4 -4 -284 -8 -623 -9 -340 -1 -654 -2 -699 -2 l-83 -1 0 -75 0
-75 -75 0 -75 0 -2 -237 -3 -238 -77 -3 -78 -3 0 -74 0 -75 -80 0 -80 0 0 -73
0 -74 -122 -6 c-66 -4 -172 -7 -235 -7 l-113 0 0 -235 0 -235 -75 0 -74 0 -3
-77 -3 -78 -77 -3 -78 -3 0 -74 0 -75 -235 0 -235 0 0 -235 0 -235 -80 0 -80
0 0 -80 0 -80 -75 0 -75 0 0 -75 0 -75 -395 0 -395 0 0 75 0 75 -155 0 -155 0
0 -70 0 -69 78 -4 c42 -1 6 -4 -80 -5 l-158 -2 0 -48 c0 -27 -3 -97 -7 -155
l-6 -107 -64 0 -63 0 -1 78 c-2 70 -3 67 -10 -43 -5 -66 -5 -173 0 -240 7
-110 8 -113 10 -42 l1 77 71 0 70 0 -1 -72 c-1 -40 -1 -110 -1 -155 l1 -83
238 0 237 0 -3 -70 -4 -69 -76 -4 c-42 -1 133 -4 391 -5 l467 -2 0 70 0 69
-77 4 c-43 1 29 4 160 5 l237 2 0 81 0 81 75 -4 75 -3 0 238 0 237 80 0 79 0
3 78 3 77 233 3 232 2 0 75 0 75 80 0 80 0 0 235 0 235 75 0 75 0 0 80 0 80
160 0 160 0 0 74 0 74 155 7 155 7 0 234 0 234 80 0 80 0 0 74 0 74 168 7 c92
4 346 5 564 1 218 -4 460 -4 537 0 l141 7 0 308 0 309 80 0 80 0 0 80 0 80 80
0 80 0 0 75 0 75 158 1 c86 0 191 1 232 2 l75 2 3 233 2 232 75 0 75 0 0 80 0
80 80 0 80 0 0 80 0 80 470 0 470 0 0 -80 0 -80 80 0 80 0 0 -75 0 -75 75 0
75 0 0 -550 0 -550 -75 0 -75 0 0 -80 0 -80 -80 0 -80 0 0 -75 0 -75 -113 0
c-63 0 -169 -3 -235 -7 l-122 -6 0 -228 0 -228 -77 -3 -78 -3 -3 -77 -3 -77
-76 -3 -76 -3 -1 -75 -1 -75 -231 -3 -231 -2 -6 -113 c-4 -61 -7 -236 -7 -388
l0 -277 163 -7 c178 -7 2332 -3 2340 5 3 3 6 143 8 312 l4 308 78 0 77 0 0 80
0 80 705 0 705 0 2 313 3 312 78 3 77 3 0 73 0 74 161 7 160 7 -3 74 -3 74
313 0 312 0 0 -70 0 -70 -82 -2 c-46 0 22 -5 151 -9 129 -5 237 -11 240 -15 3
-3 6 -319 6 -702 l0 -697 -77 -3 -78 -3 0 -74 0 -75 -630 0 -630 0 0 -80 0
-80 -75 0 -75 0 0 -235 0 -235 -80 0 -80 0 0 -80 0 -80 -705 0 -705 0 0 -390
0 -390 80 0 80 0 0 -79 0 -79 1410 -1 1410 -2 0 74 0 75 152 7 c83 4 259 6
390 4 l238 -4 0 -77 0 -78 80 0 80 0 0 -80 0 -80 75 0 75 0 0 -545 0 -545 -75
0 -75 0 0 -80 0 -80 -162 0 c-90 0 -938 0 -1885 0 l-1723 0 0 -75 0 -75 -75 0
-75 0 0 -395 0 -395 1563 0 1564 0 6 -122 c4 -66 7 -384 7 -705 l0 -583 -80 0
-80 0 0 -80 0 -80 -470 0 -470 0 0 75 0 75 -1255 0 -1255 0 0 -75 0 -75 -160
0 -160 0 2 -392 3 -393 620 0 c341 -1 657 -2 703 -3 l82 -2 0 -75 0 -75 80 0
80 0 0 -235 0 -235 160 0 160 0 0 -74 0 -74 155 -7 155 -7 0 -74 0 -73 78 -3
77 -3 0 -311 0 -312 -155 -7 -155 -7 0 -72 0 -71 -237 -3 -238 -2 0 73 0 74
-112 6 c-62 4 -554 7 -1094 7 l-981 0 -6 122 c-4 66 -7 206 -7 310 l0 188 -75
0 -75 0 0 80 0 80 -1095 0 -1094 0 -3 78 -3 77 -77 3 -78 3 -2 312 -3 312
-702 3 -703 2 0 75 0 75 -80 0 -80 0 0 315 0 315 -162 1 c-90 0 -196 0 -235
-1 l-73 -1 0 70 0 70 78 4 c42 1 -347 4 -865 5 l-943 2 0 -75 0 -75 -155 0
-155 0 0 -80 0 -80 -74 0 -73 0 -6 -137 c-3 -76 -2 -181 2 -233 l8 -95 1 78 2
77 64 0 64 0 7 -160 8 -160 236 -2 c130 -1 201 -4 159 -5 l-76 -4 -4 -69 -3
-70 468 0 467 0 0 70 0 70 -77 2 c-126 3 271 15 533 17 132 0 296 -2 362 -6
l122 -6 0 -74 0 -73 80 0 80 0 0 -315 0 -315 158 -2 c86 -1 122 -4 80 -5 l-78
-4 0 -69 0 -70 235 0 235 0 0 75 0 75 390 0 389 0 3 -77 3 -78 78 -3 77 -3 0
-309 0 -310 80 0 80 0 0 -80 0 -80 703 2 702 3 3 73 3 72 309 0 310 0 0 -75 0
-75 80 0 79 0 3 -78 3 -77 78 -3 77 -3 0 -309 0 -310 1645 0 1645 0 2 313 3
312 78 3 77 3 0 74 0 75 80 0 80 0 0 80 0 80 235 0 235 0 -2 313 -3 312 -232
3 -233 2 0 75 0 75 -80 0 -80 0 0 80 0 80 -77 0 -78 0 0 153 c0 83 1 189 3
235 l2 82 75 0 74 0 3 78 3 77 703 -3 702 -3 0 123 c0 68 3 173 7 235 l6 112
71 3 71 3 3 83 3 82 74 0 75 0 0 75 0 75 160 0 160 0 0 75 0 74 78 3 77 3 3
78 3 77 72 -2 72 -2 -67 -3 -68 -4 0 -69 0 -70 70 0 70 0 0 1094 0 1094 155 7
154 7 3 72 3 71 236 5 235 5 3 703 3 702 -161 0 -161 0 0 74 0 74 -155 7 -155
7 0 74 0 74 -80 0 -80 0 0 235 0 235 -72 -2 -73 -2 68 -3 67 -4 0 -69 0 -70
-70 0 -69 0 -3 78 -3 77 -157 3 -158 3 0 74 0 75 -154 0 -154 0 -7 161 -7 161
-69 -4 -69 -3 0 153 0 152 68 -2 67 -2 -62 -3 -63 -4 0 -64 0 -63 64 -4 64 -3
7 158 7 157 79 0 79 0 0 75 0 75 235 0 235 0 0 80 0 80 75 0 75 0 0 548 0 547
-75 -3 -75 -4 0 81 0 81 -113 0 c-63 0 -169 3 -235 7 l-122 6 0 74 0 73 -80 0
-80 0 0 80 0 80 -74 0 -74 0 -7 308 -7 309 -232 6 c-296 9 -806 9 -1103 0
l-233 -6 0 -74 0 -73 -75 0 -75 0 0 -193 c0 -107 -3 -249 -7 -315 l-6 -122
-154 0 -153 0 0 -75 0 -75 -390 0 -390 0 0 75 0 75 -80 0 -80 0 0 75 0 74 -77
3 -78 3 -3 628 -2 627 -118 0 c-64 0 -168 3 -229 7 l-113 6 0 74 0 73 -82 0
-83 0 3 75 4 75 -81 0 -81 0 0 240 0 240 -75 0 -75 0 0 73 0 74 -242 6 c-228
7 -815 6 -1176 0z m-635 -900 c-2 -21 -4 -6 -4 32 0 39 2 55 4 38 2 -18 2 -50
0 -70z m6920 -1880 c-2 -21 -4 -6 -4 32 0 39 2 55 4 38 2 -18 2 -50 0 -70z
m-9737 -283 l0 -70 -72 2 -73 2 68 3 67 4 0 64 c0 36 2 65 5 65 3 0 5 -31 5
-70z m-2358 -6900 l3 -70 -67 0 -68 0 0 70 0 70 64 0 64 0 4 -70z m9255 -1277
c-2 -21 -4 -6 -4 32 0 39 2 55 4 38 2 -18 2 -50 0 -70z m-2677 -293 l0 -70
-70 0 -70 0 0 70 0 70 70 0 70 0 0 -70z m3078 -1337 l-67 -4 -4 -67 -3 -67 -2
73 -2 72 73 -2 72 -2 -67 -3z"/>
<path d="M15173 18995 c0 -38 2 -53 4 -32 2 20 2 52 0 70 -2 17 -4 1 -4 -38z"/>
<path d="M13133 18670 c0 -41 2 -58 4 -37 2 20 2 54 0 75 -2 20 -4 3 -4 -38z"/>
<path d="M12832 16165 l2 -80 3 72 4 72 67 3 67 3 -73 5 -72 5 2 -80z"/>
<path d="M17298 15923 l82 -4 0 -64 0 -65 75 0 75 0 0 70 0 70 -157 -2 c-90
-1 -122 -4 -75 -5z"/>
<path d="M16913 15700 c0 -41 2 -58 4 -37 2 20 2 54 0 75 -2 20 -4 3 -4 -38z"/>
<path d="M14870 9260 l0 -70 75 0 75 0 0 70 0 70 -75 0 -75 0 0 -70z"/>
<path d="M10983 8413 c20 -2 54 -2 75 0 20 2 3 4 -38 4 -41 0 -58 -2 -37 -4z"/>
</g>
</svg>
