<?xml version="1.0" standalone="no"?>
<!DOCTYPE svg PUBLIC "-//W3C//DTD SVG 20010904//EN"
 "http://www.w3.org/TR/2001/REC-SVG-20010904/DTD/svg10.dtd">
<svg version="1.0" xmlns="http://www.w3.org/2000/svg"
 width="2550.000000pt" height="2550.000000pt" viewBox="0 0 2550.000000 2550.000000"
 preserveAspectRatio="xMidYMid meet">

<g transform="translate(0.000000,2550.000000) scale(0.100000,-0.100000)"
fill="#000000" stroke="none">
<path d="M11390 18700 l0 -340 -85 0 -85 0 0 -85 0 -85 -85 0 -85 0 0 -85 0
-85 -255 0 -255 0 0 -85 0 -85 -85 0 -85 0 0 -255 0 -255 -85 0 -85 0 0 -85 0
-85 -255 0 -255 0 0 -85 0 -85 -85 0 -85 0 0 -255 0 -255 -85 0 -85 0 0 -85 0
-85 -170 0 -170 0 0 -85 0 -85 -170 0 -170 0 0 85 0 85 -425 0 -425 0 0 -85 0
-85 -85 0 -85 0 0 -425 0 -425 85 0 85 0 0 -85 0 -85 850 0 850 0 0 85 0 85
85 0 85 0 0 340 0 340 85 0 85 0 0 85 0 85 255 0 255 0 0 85 0 85 85 0 85 0 0
85 0 85 85 0 85 0 0 255 0 255 85 0 85 0 0 85 0 85 340 0 340 0 0 340 0 340
85 0 85 0 0 85 0 85 1105 0 1105 0 0 -85 0 -85 85 0 85 0 0 -680 0 -680 85 0
85 0 0 -170 0 -170 935 0 935 0 0 255 0 255 85 0 85 0 0 170 0 170 85 0 85 0
0 85 0 85 510 0 510 0 0 -85 0 -85 170 0 170 0 0 -765 0 -765 -85 0 -85 0 0
-85 0 -85 -340 0 -340 0 0 -425 0 -425 85 0 85 0 0 -85 0 -85 255 0 255 0 0
-85 0 -85 85 0 85 0 0 -765 0 -765 -170 0 -170 0 0 -85 0 -85 -255 0 -255 0 0
-425 0 -425 340 0 340 0 0 -85 0 -85 85 0 85 0 0 -765 0 -765 -85 0 -85 0 0
-85 0 -85 -510 0 -510 0 0 85 0 85 -85 0 -85 0 0 -85 0 -85 -255 0 -255 0 0
-340 0 -340 85 0 85 0 0 -85 0 -85 255 0 255 0 0 -85 0 -85 85 0 85 0 0 -85 0
-85 85 0 85 0 0 -255 0 -255 -85 0 -85 0 0 -85 0 -85 -595 0 -595 0 0 85 0 85
-935 0 -935 0 0 -85 0 -85 -510 0 -510 0 0 85 0 85 -85 0 -85 0 0 170 0 170
-85 0 -85 0 0 255 0 255 -850 0 -850 0 0 255 0 255 -85 0 -85 0 0 170 0 170
-170 0 -170 0 0 85 0 85 -1105 0 -1105 0 0 -85 0 -85 -170 0 -170 0 0 -510 0
-510 1360 0 1360 0 0 -340 0 -340 85 0 85 0 0 -85 0 -85 170 0 170 0 0 -85 0
-85 85 0 85 0 0 85 0 85 510 0 510 0 0 -85 0 -85 85 0 85 0 0 -340 0 -340 85
0 85 0 0 -85 0 -85 2295 0 2295 0 0 85 0 85 85 0 85 0 0 340 0 340 85 0 85 0
0 85 0 85 340 0 340 0 0 765 0 765 85 0 85 0 0 85 0 85 85 0 85 0 0 85 0 85
255 0 255 0 0 85 0 85 85 0 85 0 0 765 0 765 -340 0 -340 0 0 85 0 85 -85 0
-85 0 0 170 0 170 -85 0 -85 0 0 170 0 170 85 0 85 0 0 85 0 85 85 0 85 0 0
85 0 85 255 0 255 0 0 85 0 85 85 0 85 0 0 680 0 680 -85 0 -85 0 0 85 0 85
-255 0 -255 0 0 85 0 85 -85 0 -85 0 0 85 0 85 -85 0 -85 0 0 170 0 170 85 0
85 0 0 170 0 170 170 0 170 0 0 85 0 85 255 0 255 0 0 765 0 765 -170 0 -170
0 0 85 0 85 -170 0 -170 0 0 85 0 85 -85 0 -85 0 0 85 0 85 -85 0 -85 0 0 340
0 340 -850 0 -850 0 0 -85 0 -85 -85 0 -85 0 0 -340 0 -340 -170 0 -170 0 0
-85 0 -85 -170 0 -170 0 0 85 0 85 -85 0 -85 0 0 85 0 85 -85 0 -85 0 0 255 0
255 -255 0 -255 0 0 85 0 85 -85 0 -85 0 0 170 0 170 -85 0 -85 0 0 255 0 255
-1445 0 -1445 0 0 -340z"/>
</g>
</svg>
