<?xml version="1.0" standalone="no"?>
<!DOCTYPE svg PUBLIC "-//W3C//DTD SVG 20010904//EN"
 "http://www.w3.org/TR/2001/REC-SVG-20010904/DTD/svg10.dtd">
<svg version="1.0" xmlns="http://www.w3.org/2000/svg"
 width="2550.000000pt" height="2550.000000pt" viewBox="0 0 2550.000000 2550.000000"
 preserveAspectRatio="xMidYMid meet">

<g transform="translate(0.000000,2550.000000) scale(0.100000,-0.100000)"
fill="#000000" stroke="none">
<path d="M10700 18785 l0 -85 -170 0 -170 0 0 -85 0 -85 -85 0 -85 0 0 -255 0
-255 -85 0 -85 0 0 -85 0 -85 -255 0 -255 0 0 -85 0 -85 -85 0 -85 0 0 -255 0
-255 -85 0 -85 0 0 -85 0 -85 -255 0 -255 0 0 -170 0 -170 -85 0 -85 0 0 -170
0 -170 -85 0 -85 0 0 -85 0 -85 -425 0 -425 0 0 85 0 85 -170 0 -170 0 0 -85
0 -85 -85 0 -85 0 0 -425 0 -425 850 0 850 0 0 340 0 340 85 0 85 0 0 85 0 85
170 0 170 0 0 85 0 85 170 0 170 0 0 255 0 255 85 0 85 0 0 85 0 85 170 0 170
0 0 85 0 85 170 0 170 0 0 255 0 255 85 0 85 0 0 85 0 85 1020 0 1020 0 0 -85
0 -85 85 0 85 0 0 -680 0 -680 85 0 85 0 0 -85 0 -85 1190 0 1190 0 0 85 0 85
85 0 85 0 0 255 0 255 85 0 85 0 0 85 0 85 680 0 680 0 0 85 0 85 85 0 85 0 0
255 0 255 85 0 85 0 0 85 0 85 595 0 595 0 0 -85 0 -85 85 0 85 0 0 -595 0
-595 -85 0 -85 0 0 -85 0 -85 -85 0 -85 0 0 -85 0 -85 -340 0 -340 0 0 85 0
85 -170 0 -170 0 0 -85 0 -85 -170 0 -170 0 0 -340 0 -340 -170 0 -170 0 0
-85 0 -85 -340 0 -340 0 0 85 0 85 -255 0 -255 0 0 -85 0 -85 -85 0 -85 0 0
-340 0 -340 85 0 85 0 0 -85 0 -85 1955 0 1955 0 0 -85 0 -85 85 0 85 0 0
-595 0 -595 -85 0 -85 0 0 -85 0 -85 -1955 0 -1955 0 0 -85 0 -85 -85 0 -85 0
0 -340 0 -340 255 0 255 0 0 -85 0 -85 85 0 85 0 0 -85 0 -85 85 0 85 0 0
-595 0 -595 -85 0 -85 0 0 -85 0 -85 -680 0 -680 0 0 -85 0 -85 -85 0 -85 0 0
-255 0 -255 170 0 170 0 0 -85 0 -85 170 0 170 0 0 -85 0 -85 85 0 85 0 0
-340 0 -340 -170 0 -170 0 0 -85 0 -85 -170 0 -170 0 0 85 0 85 -1615 0 -1615
0 0 85 0 85 -85 0 -85 0 0 340 0 340 -765 0 -765 0 0 85 0 85 -85 0 -85 0 0
340 0 340 -1275 0 -1275 0 0 -425 0 -425 85 0 85 0 0 -85 0 -85 595 0 595 0 0
85 0 85 425 0 425 0 0 -85 0 -85 85 0 85 0 0 -255 0 -255 85 0 85 0 0 -85 0
-85 85 0 85 0 0 -85 0 -85 170 0 170 0 0 85 0 85 425 0 425 0 0 -85 0 -85 85
0 85 0 0 -255 0 -255 85 0 85 0 0 -85 0 -85 85 0 85 0 0 -85 0 -85 1870 0
1870 0 0 85 0 85 170 0 170 0 0 340 0 340 85 0 85 0 0 85 0 85 255 0 255 0 0
85 0 85 85 0 85 0 0 680 0 680 85 0 85 0 0 85 0 85 340 0 340 0 0 765 0 765
170 0 170 0 0 85 0 85 255 0 255 0 0 -85 0 -85 765 0 765 0 0 85 0 85 85 0 85
0 0 340 0 340 170 0 170 0 0 85 0 85 170 0 170 0 0 85 0 85 85 0 85 0 0 595 0
595 -85 0 -85 0 0 85 0 85 -255 0 -255 0 0 85 0 85 -85 0 -85 0 0 255 0 255
-170 0 -170 0 0 85 0 85 -170 0 -170 0 0 85 0 85 -85 0 -85 0 0 340 0 340 85
0 85 0 0 85 0 85 255 0 255 0 0 85 0 85 85 0 85 0 0 595 0 595 -85 0 -85 0 0
85 0 85 -255 0 -255 0 0 85 0 85 -85 0 -85 0 0 255 0 255 -85 0 -85 0 0 85 0
85 -170 0 -170 0 0 85 0 85 -510 0 -510 0 0 -85 0 -85 -170 0 -170 0 0 -340 0
-340 -85 0 -85 0 0 -85 0 -85 -425 0 -425 0 0 85 0 85 -170 0 -170 0 0 -85 0
-85 -170 0 -170 0 0 -340 0 -340 -85 0 -85 0 0 -85 0 -85 -510 0 -510 0 0 85
0 85 -170 0 -170 0 0 255 0 255 -85 0 -85 0 0 85 0 85 -255 0 -255 0 0 85 0
85 -85 0 -85 0 0 340 0 340 -170 0 -170 0 0 85 0 85 -935 0 -935 0 0 -85z"/>
</g>
</svg>
