<?xml version="1.0" encoding="UTF-8" standalone="no"?>
<svg
   xmlns:dc="http://purl.org/dc/elements/1.1/"
   xmlns:cc="http://creativecommons.org/ns#"
   xmlns:rdf="http://www.w3.org/1999/02/22-rdf-syntax-ns#"
   xmlns:svg="http://www.w3.org/2000/svg"
   xmlns="http://www.w3.org/2000/svg"
   xmlns:sodipodi="http://sodipodi.sourceforge.net/DTD/sodipodi-0.dtd"
   xmlns:inkscape="http://www.inkscape.org/namespaces/inkscape"
   version="1.0"
   width="2550.000000pt"
   height="2550.000000pt"
   viewBox="0 0 2550.000000 2550.000000"
   preserveAspectRatio="xMidYMid meet"
   id="svg6"
   sodipodi:docname="scissors.svg"
   inkscape:version="0.92.5 (2060ec1f9f, 2020-04-08)">
  <metadata
     id="metadata12">
    <rdf:RDF>
      <cc:Work
         rdf:about="">
        <dc:format>image/svg+xml</dc:format>
        <dc:type
           rdf:resource="http://purl.org/dc/dcmitype/StillImage" />
      </cc:Work>
    </rdf:RDF>
  </metadata>
  <defs
     id="defs10" />
  <sodipodi:namedview
     pagecolor="#ffffff"
     bordercolor="#666666"
     borderopacity="1"
     objecttolerance="10"
     gridtolerance="10"
     guidetolerance="10"
     inkscape:pageopacity="0"
     inkscape:pageshadow="2"
     inkscape:window-width="1920"
     inkscape:window-height="991"
     id="namedview8"
     showgrid="false"
     inkscape:zoom="0.069411765"
     inkscape:cx="-994.0678"
     inkscape:cy="1700"
     inkscape:window-x="0"
     inkscape:window-y="0"
     inkscape:window-maximized="1"
     inkscape:current-layer="svg6" />
  <g
     transform="matrix(0.1820649,0,0,-0.1820649,-1215.6537,3746.2314)"
     id="g4"
     style="fill:#000000;stroke:none">
    <path
       d="m 10700,18785 v -85 h -170 -170 v -85 -85 h -85 -85 v -255 -255 h -85 -85 v -85 -85 h -255 -255 v -85 -85 h -85 -85 v -255 -255 h -85 -85 v -85 -85 h -255 -255 v -170 -170 h -85 -85 v -170 -170 h -85 -85 v -85 -85 h -425 -425 v 85 85 h -170 -170 v -85 -85 h -85 -85 v -425 -425 h 850 850 v 340 340 h 85 85 v 85 85 h 170 170 v 85 85 h 170 170 v 255 255 h 85 85 v 85 85 h 170 170 v 85 85 h 170 170 v 255 255 h 85 85 v 85 85 h 1020 1020 v -85 -85 h 85 85 v -680 -680 h 85 85 v -85 -85 h 1190 1190 v 85 85 h 85 85 v 255 255 h 85 85 v 85 85 h 680 680 v 85 85 h 85 85 v 255 255 h 85 85 v 85 85 h 595 595 v -85 -85 h 85 85 v -595 -595 h -85 -85 v -85 -85 h -85 -85 v -85 -85 h -340 -340 v 85 85 h -170 -170 v -85 -85 h -170 -170 v -340 -340 h -170 -170 v -85 -85 h -340 -340 v 85 85 h -255 -255 v -85 -85 h -85 -85 v -340 -340 h 85 85 v -85 -85 h 1955 1955 v -85 -85 h 85 85 v -595 -595 h -85 -85 v -85 -85 h -1955 -1955 v -85 -85 h -85 -85 v -340 -340 h 255 255 v -85 -85 h 85 85 v -85 -85 h 85 85 v -595 -595 h -85 -85 v -85 -85 h -680 -680 v -85 -85 h -85 -85 v -255 -255 h 170 170 v -85 -85 h 170 170 v -85 -85 h 85 85 v -340 -340 h -170 -170 v -85 -85 h -170 -170 v 85 85 h -1615 -1615 v 85 85 h -85 -85 v 340 340 h -765 -765 v 85 85 h -85 -85 v 340 340 H 8235 6960 v -425 -425 h 85 85 v -85 -85 h 595 595 v 85 85 h 425 425 v -85 -85 h 85 85 v -255 -255 h 85 85 v -85 -85 h 85 85 v -85 -85 h 170 170 v 85 85 h 425 425 v -85 -85 h 85 85 v -255 -255 h 85 85 v -85 -85 h 85 85 v -85 -85 h 1870 1870 v 85 85 h 170 170 v 340 340 h 85 85 v 85 85 h 255 255 v 85 85 h 85 85 v 680 680 h 85 85 v 85 85 h 340 340 v 765 765 h 170 170 v 85 85 h 255 255 v -85 -85 h 765 765 v 85 85 h 85 85 v 340 340 h 170 170 v 85 85 h 170 170 v 85 85 h 85 85 v 595 595 h -85 -85 v 85 85 h -255 -255 v 85 85 h -85 -85 v 255 255 h -170 -170 v 85 85 h -170 -170 v 85 85 h -85 -85 v 340 340 h 85 85 v 85 85 h 255 255 v 85 85 h 85 85 v 595 595 h -85 -85 v 85 85 h -255 -255 v 85 85 h -85 -85 v 255 255 h -85 -85 v 85 85 h -170 -170 v 85 85 h -510 -510 v -85 -85 h -170 -170 v -340 -340 h -85 -85 v -85 -85 h -425 -425 v 85 85 h -170 -170 v -85 -85 h -170 -170 v -340 -340 h -85 -85 v -85 -85 h -510 -510 v 85 85 h -170 -170 v 255 255 h -85 -85 v 85 85 h -255 -255 v 85 85 h -85 -85 v 340 340 h -170 -170 v 85 85 h -935 -935 z"
       id="path2"
       inkscape:connector-curvature="0" />
  </g>
</svg>
